{
  "accessors": [
    {
      "bufferView": 2,
      "componentType": 5126,
      "count": 3023,
      "max": [
        120.92650604248047,
        120.19999694824219,
        4.000111103057861
      ],
      "min": [
        -120.19999694824219,
        -120.19999694824219,
        -3.9998888969421387
      ],
      "type": "VEC3"
    },
    {
      "bufferView": 2,
      "byteOffset": 36276,
      "componentType": 5126,
      "count": 3023,
      "max": [
        1.0,
        1.0,
        0.9848142266273499
      ],
      "min": [
        -1.0,
        -1.0,
        -0.9848142266273499
      ],
      "type": "VEC3"
    },
    {
      "bufferView": 3,
      "componentType": 5126,
      "count": 3023,
      "max": [
        0.0,
        0.0,
        0.0,
        0.0
      ],
      "min": [
        0.0,
        0.0,
        0.0,
        0.0
      ],
      "type": "VEC4"
    },
    {
      "bufferView": 1,
      "componentType": 5126,
      "count": 3023,
      "max": [
        1.0,
        1.0
      ],
      "min": [
        0.0,
        0.0
      ],
      "type": "VEC2"
    },
    {
      "bufferView": 0,
      "componentType": 5125,
      "count": 12384,
      "type": "SCALAR"
    },
    {
      "bufferView": 2,
      "byteOffset": 72552,
      "componentType": 5126,
      "count": 323,
      "max": [
        8.125804901123047,
        11.6420316696167,
        7.687645435333252
      ],
      "min": [
        -7.791541576385498,
        -4.277390003204346,
        -8.211932182312012
      ],
      "type": "VEC3"
    },
    {
      "bufferView": 2,
      "byteOffset": 76428,
      "componentType": 5126,
      "count": 323,
      "max": [
        0.9948518872261047,
        0.9949694871902466,
        0.9937309622764587
      ],
      "min": [
        -0.9948518872261047,
        -0.9949694871902466,
        -0.9937309622764587
      ],
      "type": "VEC3"
    },
    {
      "bufferView": 3,
      "byteOffset": 48368,
      "componentType": 5126,
      "count": 323,
      "max": [
        1.0,
        1.0,
        1.0,
        0.0
      ],
      "min": [
        1.0,
        1.0,
        1.0,
        0.0
      ],
      "type": "VEC4"
    },
    {
      "bufferView": 1,
      "byteOffset": 24184,
      "componentType": 5126,
      "count": 323,
      "max": [
        1.0,
        1.0
      ],
      "min": [
        0.0,
        0.0
      ],
      "type": "VEC2"
    },
    {
      "bufferView": 0,
      "byteOffset": 49536,
      "componentType": 5125,
      "count": 1584,
      "type": "SCALAR"
    },
    {
      "bufferView": 4,
      "componentType": 5126,
      "count": 1001,
      "max": [
        33.33333206176758
      ],
      "min": [
        0.0
      ],
      "type": "SCALAR"
    },
    {
      "bufferView": 5,
      "componentType": 5126,
      "count": 1001,
      "max": [
        0.7937023639678955,
        0.7937023639678955,
        0.608303427696228,
        0.608303427696228
      ],
      "min": [
        -0.5587722659111023,
        -0.5601618885993958,
        -0.42820313572883606,
        -0.42936161160469055
      ],
      "type": "VEC4"
    },
    {
      "bufferView": 4,
      "byteOffset": 4004,
      "componentType": 5126,
      "count": 1001,
      "max": [
        33.33333206176758
      ],
      "min": [
        0.0
      ],
      "type": "SCALAR"
    },
    {
      "bufferView": 5,
      "byteOffset": 16016,
      "componentType": 5126,
      "count": 1001,
      "max": [
        0.0947335809469223,
        0.0947335809469223,
        0.9955026507377625,
        0.9955026507377625
      ],
      "min": [
        -0.0818425640463829,
        -0.04745268076658249,
        -0.8600380420684814,
        -0.4986538887023926
      ],
      "type": "VEC4"
    },
    {
      "bufferView": 4,
      "byteOffset": 8008,
      "componentType": 5126,
      "count": 1001,
      "max": [
        33.33333206176758
      ],
      "min": [
        0.0
      ],
      "type": "SCALAR"
    },
    {
      "bufferView": 5,
      "byteOffset": 32032,
      "componentType": 5126,
      "count": 1001,
      "max": [
        7.484663701602776e-16,
        6.707945606278015e-16,
        1.0,
        1.0
      ],
      "min": [
        -2.9003702486209767e-16,
        -6.454231710004566e-16,
        -0.8639234304428101,
        -0.4981851875782013
      ],
      "type": "VEC4"
    },
    {
      "bufferView": 4,
      "byteOffset": 12012,
      "componentType": 5126,
      "count": 1001,
      "max": [
        33.33333206176758
      ],
      "min": [
        0.0
      ],
      "type": "SCALAR"
    },
    {
      "bufferView": 5,
      "byteOffset": 48048,
      "componentType": 5126,
      "count": 1001,
      "max": [
        0.598537266254425,
        0.598537266254425,
        0.8010914921760559,
        0.8010914921760559
      ],
      "min": [
        -0.47675371170043945,
        -0.35887354612350464,
        -0.6248735785484314,
        -0.49734699726104736
      ],
      "type": "VEC4"
    },
    {
      "bufferView": 4,
      "byteOffset": 16016,
      "componentType": 5126,
      "count": 1001,
      "max": [
        33.33333206176758
      ],
      "min": [
        0.0
      ],
      "type": "SCALAR"
    },
    {
      "bufferView": 5,
      "byteOffset": 64064,
      "componentType": 5126,
      "count": 1001,
      "max": [
        1.590372811222096e-08,
        0.9999998211860657,
        1.9480106072601762e-14,
        0.9999998211860657
      ],
      "min": [
        -1.9248904692403812e-08,
        -0.8651865720748901,
        -2.7518126869525115e-14,
        -0.4987295866012573
      ],
      "type": "VEC4"
    },
    {
      "bufferView": 4,
      "byteOffset": 20020,
      "componentType": 5126,
      "count": 1001,
      "max": [
        33.33333206176758
      ],
      "min": [
        0.0
      ],
      "type": "SCALAR"
    },
    {
      "bufferView": 5,
      "byteOffset": 80080,
      "componentType": 5126,
      "count": 1001,
      "max": [
        0.08237274736166,
        0.1637563854455948,
        0.9865005612373352,
        0.9865005612373352
      ],
      "min": [
        -0.1637563854455948,
        -0.14101019501686096,
        -0.8494730591773987,
        -0.4962296485900879
      ],
      "type": "VEC4"
    },
    {
      "bufferView": 4,
      "byteOffset": 24024,
      "componentType": 5126,
      "count": 1001,
      "max": [
        33.33333206176758
      ],
      "min": [
        0.0
      ],
      "type": "SCALAR"
    },
    {
      "bufferView": 5,
      "byteOffset": 96096,
      "componentType": 5126,
      "count": 1001,
      "max": [
        1.590372811222096e-08,
        0.9999998211860657,
        1.9480106072601762e-14,
        0.9999998211860657
      ],
      "min": [
        -1.9248904692403812e-08,
        -0.8651865720748901,
        -2.7518126869525115e-14,
        -0.4987295866012573
      ],
      "type": "VEC4"
    },
    {
      "bufferView": 4,
      "byteOffset": 28028,
      "componentType": 5126,
      "count": 1001,
      "max": [
        33.33333206176758
      ],
      "min": [
        0.0
      ],
      "type": "SCALAR"
    },
    {
      "bufferView": 5,
      "byteOffset": 112112,
      "componentType": 5126,
      "count": 1001,
      "max": [
        0.08237274736166,
        0.1637563854455948,
        0.9865005612373352,
        0.9865005612373352
      ],
      "min": [
        -0.1637563854455948,
        -0.14101019501686096,
        -0.8494730591773987,
        -0.4962296485900879
      ],
      "type": "VEC4"
    },
    {
      "bufferView": 4,
      "byteOffset": 32032,
      "componentType": 5126,
      "count": 1001,
      "max": [
        33.33333206176758
      ],
      "min": [
        0.0
      ],
      "type": "SCALAR"
    },
    {
      "bufferView": 5,
      "byteOffset": 128128,
      "componentType": 5126,
      "count": 1001,
      "max": [
        0.3364359736442566,
        0.9417058825492859,
        0.31521156430244446,
        0.9417059421539307
      ],
      "min": [
        -0.11661442369222641,
        -0.7971152663230896,
        -0.3364359736442566,
        -0.4989092946052551
      ],
      "type": "VEC4"
    },
    {
      "bufferView": 4,
      "byteOffset": 36036,
      "componentType": 5126,
      "count": 1001,
      "max": [
        33.33333206176758
      ],
      "min": [
        0.0
      ],
      "type": "SCALAR"
    },
    {
      "bufferView": 5,
      "byteOffset": 144144,
      "componentType": 5126,
      "count": 1001,
      "max": [
        0.08237274736166,
        0.1637563854455948,
        0.9865005612373352,
        0.9865005612373352
      ],
      "min": [
        -0.1637563854455948,
        -0.14101019501686096,
        -0.8494730591773987,
        -0.4962296485900879
      ],
      "type": "VEC4"
    },
    {
      "bufferView": 4,
      "byteOffset": 40040,
      "componentType": 5126,
      "count": 1001,
      "max": [
        33.33333206176758
      ],
      "min": [
        0.0
      ],
      "type": "SCALAR"
    },
    {
      "bufferView": 5,
      "byteOffset": 160160,
      "componentType": 5126,
      "count": 1001,
      "max": [
        0.7349089980125427,
        0.4890141189098358,
        0.7349088191986084,
        0.6781652569770813
      ],
      "min": [
        -0.7307806611061096,
        -0.6781652569770813,
        -0.518424391746521,
        -0.46832722425460815
      ],
      "type": "VEC4"
    },
    {
      "bufferView": 4,
      "byteOffset": 44044,
      "componentType": 5126,
      "count": 1001,
      "max": [
        33.33333206176758
      ],
      "min": [
        0.0
      ],
      "type": "SCALAR"
    },
    {
      "bufferView": 5,
      "byteOffset": 176176,
      "componentType": 5126,
      "count": 1001,
      "max": [
        0.08237274736166,
        0.1637563854455948,
        0.9865005612373352,
        0.9865005612373352
      ],
      "min": [
        -0.1637563854455948,
        -0.14101019501686096,
        -0.8494730591773987,
        -0.4962296485900879
      ],
      "type": "VEC4"
    },
    {
      "bufferView": 4,
      "byteOffset": 48048,
      "componentType": 5126,
      "count": 1001,
      "max": [
        33.33333206176758
      ],
      "min": [
        0.0
      ],
      "type": "SCALAR"
    },
    {
      "bufferView": 5,
      "byteOffset": 192192,
      "componentType": 5126,
      "count": 1001,
      "max": [
        0.11800780892372131,
        0.982602596282959,
        0.18571943044662476,
        0.982602596282959
      ],
      "min": [
        -0.1857193112373352,
        -0.8454037308692932,
        -0.1430365890264511,
        -0.4981418251991272
      ],
      "type": "VEC4"
    },
    {
      "bufferView": 4,
      "byteOffset": 52052,
      "componentType": 5126,
      "count": 1001,
      "max": [
        33.33333206176758
      ],
      "min": [
        0.0
      ],
      "type": "SCALAR"
    },
    {
      "bufferView": 5,
      "byteOffset": 208208,
      "componentType": 5126,
      "count": 1001,
      "max": [
        0.3895967900753021,
        0.9209855198860168,
        0.3895967900753021,
        0.9209855198860168
      ],
      "min": [
        -0.32696542143821716,
        -0.7729282975196838,
        -0.21081912517547607,
        -0.4983648359775543
      ],
      "type": "VEC4"
    }
  ],
  "animations": [
    {
      "channels": [
        {
          "sampler": 0,
          "target": {
            "node": 8,
            "path": "rotation"
          }
        },
        {
          "sampler": 1,
          "target": {
            "node": 7,
            "path": "rotation"
          }
        },
        {
          "sampler": 2,
          "target": {
            "node": 11,
            "path": "rotation"
          }
        },
        {
          "sampler": 3,
          "target": {
            "node": 13,
            "path": "rotation"
          }
        },
        {
          "sampler": 4,
          "target": {
            "node": 12,
            "path": "rotation"
          }
        },
        {
          "sampler": 5,
          "target": {
            "node": 15,
            "path": "rotation"
          }
        },
        {
          "sampler": 6,
          "target": {
            "node": 14,
            "path": "rotation"
          }
        },
        {
          "sampler": 7,
          "target": {
            "node": 17,
            "path": "rotation"
          }
        },
        {
          "sampler": 8,
          "target": {
            "node": 16,
            "path": "rotation"
          }
        },
        {
          "sampler": 9,
          "target": {
            "node": 19,
            "path": "rotation"
          }
        },
        {
          "sampler": 10,
          "target": {
            "node": 18,
            "path": "rotation"
          }
        },
        {
          "sampler": 11,
          "target": {
            "node": 21,
            "path": "rotation"
          }
        },
        {
          "sampler": 12,
          "target": {
            "node": 20,
            "path": "rotation"
          }
        },
        {
          "sampler": 13,
          "target": {
            "node": 4,
            "path": "rotation"
          }
        }
      ],
      "name": "CINEMA_4D_Principale",
      "samplers": [
        {
          "input": 10,
          "interpolation": "LINEAR",
          "output": 11
        },
        {
          "input": 12,
          "interpolation": "LINEAR",
          "output": 13
        },
        {
          "input": 14,
          "interpolation": "LINEAR",
          "output": 15
        },
        {
          "input": 16,
          "interpolation": "LINEAR",
          "output": 17
        },
        {
          "input": 18,
          "interpolation": "LINEAR",
          "output": 19
        },
        {
          "input": 20,
          "interpolation": "LINEAR",
          "output": 21
        },
        {
          "input": 22,
          "interpolation": "LINEAR",
          "output": 23
        },
        {
          "input": 24,
          "interpolation": "LINEAR",
          "output": 25
        },
        {
          "input": 26,
          "interpolation": "LINEAR",
          "output": 27
        },
        {
          "input": 28,
          "interpolation": "LINEAR",
          "output": 29
        },
        {
          "input": 30,
          "interpolation": "LINEAR",
          "output": 31
        },
        {
          "input": 32,
          "interpolation": "LINEAR",
          "output": 33
        },
        {
          "input": 34,
          "interpolation": "LINEAR",
          "output": 35
        },
        {
          "input": 36,
          "interpolation": "LINEAR",
          "output": 37
        }
      ]
    }
  ],
  "asset": {
    "extras": {
      "author": "giacomoalbani (https://sketchfab.com/giacomoalbani)",
      "license": "CC-BY-4.0 (http://creativecommons.org/licenses/by/4.0/)",
      "source": "https://sketchfab.com/3d-models/1-hydrogen-935403a0bb8b4a398ec34f6a29e65225",
      "title": "1 - Hydrogen"
    },
    "generator": "Sketchfab-12.64.0",
    "version": "2.0"
  },
  "bufferViews": [
    {
      "buffer": 0,
      "byteLength": 55872,
      "name": "floatBufferViews",
      "target": 34963
    },
    {
      "buffer": 0,
      "byteLength": 26768,
      "byteOffset": 55872,
      "byteStride": 8,
      "name": "floatBufferViews",
      "target": 34962
    },
    {
      "buffer": 0,
      "byteLength": 80304,
      "byteOffset": 82640,
      "byteStride": 12,
      "name": "floatBufferViews",
      "target": 34962
    },
    {
      "buffer": 0,
      "byteLength": 53536,
      "byteOffset": 162944,
      "byteStride": 16,
      "name": "floatBufferViews",
      "target": 34962
    },
    {
      "buffer": 0,
      "byteLength": 56056,
      "byteOffset": 216480,
      "name": "floatBufferViews"
    },
    {
      "buffer": 0,
      "byteLength": 224224,
      "byteOffset": 272536,
      "byteStride": 16,
      "name": "floatBufferViews"
    }
  ],
  "buffers": [
    {
      "byteLength": 496760,
      "uri": "scene.bin"
    }
  ],
  "materials": [
    {
      "doubleSided": true,
      "name": "Orbita_2__0",
      "pbrMetallicRoughness": {
        "metallicFactor": 0.0,
        "roughnessFactor": 0.6
      }
    },
    {
      "doubleSided": true,
      "name": "Nuovo.1",
      "pbrMetallicRoughness": {
        "baseColorFactor": [
          1.0,
          0.461,
          0.23,
          1.0
        ],
        "metallicFactor": 0.0,
        "roughnessFactor": 0.9524317153998911
      }
    }
  ],
  "meshes": [
    {
      "name": "Orbita_2__0",
      "primitives": [
        {
          "attributes": {
            "COLOR_0": 2,
            "NORMAL": 1,
            "POSITION": 0,
            "TEXCOORD_0": 3
          },
          "indices": 4,
          "material": 0,
          "mode": 4
        }
      ]
    },
    {
      "name": "Protoni_2_Nuovo.1_0",
      "primitives": [
        {
          "attributes": {
            "COLOR_0": 7,
            "NORMAL": 6,
            "POSITION": 5,
            "TEXCOORD_0": 8
          },
          "indices": 9,
          "material": 1,
          "mode": 4
        }
      ]
    }
  ],
  "nodes": [
    {
      "children": [
        1
      ],
      "matrix": [
        1.0,
        0.0,
        0.0,
        0.0,
        0.0,
        2.220446049250313e-16,
        -1.0,
        0.0,
        0.0,
        1.0,
        2.220446049250313e-16,
        0.0,
        0.0,
        0.0,
        0.0,
        1.0
      ],
      "name": "Sketchfab_model"
    },
    {
      "children": [
        2
      ],
      "matrix": [
        1.0,
        0.0,
        0.0,
        0.0,
        0.0,
        0.0,
        1.0,
        0.0,
        0.0,
        -1.0,
        0.0,
        0.0,
        0.0,
        0.0,
        0.0,
        1.0
      ],
      "name": "Idrogeno2.abc.fbx"
    },
    {
      "children": [
        3
      ],
      "name": "Object_2"
    },
    {
      "children": [
        4
      ],
      "name": "RootNode"
    },
    {
      "children": [
        5
      ],
      "name": "CerchioG",
      "rotation": [
        0.0,
        0.0,
        0.3895967900753021,
        0.9209855198860168
      ]
    },
    {
      "children": [
        6,
        22
      ],
      "name": "BOIII",
      "rotation": [
        0.0,
        -0.0,
        -0.3895967900753021,
        0.9209855198860168
      ]
    },
    {
      "children": [
        7,
        10,
        12,
        14,
        16,
        18,
        20
      ],
      "name": "Elettroni"
    },
    {
      "children": [
        8
      ],
      "name": "E1___INTERNI",
      "rotation": [
        -9.849737161898652e-34,
        0.0947335958480835,
        6.28455059058898e-33,
        0.995502769947052
      ]
    },
    {
      "children": [
        9
      ],
      "name": "Orbita_2",
      "rotation": [
        0.523749053478241,
        0.5963662266731262,
        0.4014573097229004,
        0.4570188820362091
      ]
    },
    {
      "mesh": 0,
      "name": "Orbita_2__0"
    },
    {
      "children": [
        11
      ],
      "name": "E2",
      "rotation": [
        0.8227648138999939,
        0.4338439702987671,
        0.18396568298339844,
        -0.31779569387435913
      ]
    },
    {
      "name": "Orbita_1",
      "rotation": [
        -9.129440881259547e-17,
        -6.900474342304345e-17,
        -0.627691388130188,
        0.778462290763855
      ]
    },
    {
      "children": [
        13
      ],
      "name": "E3",
      "rotation": [
        -9.849737161898652e-34,
        0.0947335958480835,
        6.28455059058898e-33,
        0.995502769947052
      ]
    },
    {
      "name": "Orbita_5",
      "rotation": [
        0.5869765877723694,
        -0.11707674711942673,
        0.781133234500885,
        -0.17771440744400024
      ]
    },
    {
      "children": [
        15
      ],
      "name": "E4",
      "rotation": [
        -9.849737161898652e-34,
        0.0947335958480835,
        6.28455059058898e-33,
        0.995502769947052
      ]
    },
    {
      "name": "Orbita",
      "rotation": [
        -0.1635552942752838,
        0.008113648742437363,
        0.04887821152806282,
        0.9852891564369202
      ]
    },
    {
      "children": [
        17
      ],
      "name": "E5",
      "rotation": [
        0.3364271819591522,
        0.18438614904880524,
        0.0024632022250443697,
        0.9234785437583923
      ]
    },
    {
      "name": "Orbita_3",
      "rotation": [
        -0.1635552942752838,
        0.008113648742437363,
        0.04887821152806282,
        0.9852891564369202
      ]
    },
    {
      "children": [
        19
      ],
      "name": "E6",
      "rotation": [
        -0.7307806611061096,
        0.056700095534324646,
        0.07778815180063248,
        0.6757912039756775
      ]
    },
    {
      "name": "Orbita_4",
      "rotation": [
        -0.1635552942752838,
        0.008113648742437363,
        0.04887821152806282,
        0.9852891564369202
      ]
    },
    {
      "children": [
        21
      ],
      "name": "E7___ESTERNI",
      "rotation": [
        -0.18293699622154236,
        0.016148246824741364,
        0.032027389854192734,
        0.9824700951576233
      ]
    },
    {
      "name": "Orbita_6",
      "rotation": [
        -0.1635552942752838,
        0.008113648742437363,
        0.04887821152806282,
        0.9852891564369202
      ]
    },
    {
      "children": [
        23
      ],
      "name": "Forza",
      "rotation": [
        0.0,
        -0.0,
        -0.09098020195960999,
        0.9958527088165283
      ]
    },
    {
      "children": [
        24,
        27
      ],
      "name": "Nucleo",
      "rotation": [
        -0.31606850028038025,
        0.5486029982566833,
        0.7527464032173157,
        -0.18030062317848206
      ]
    },
    {
      "children": [
        25
      ],
      "name": "Protoni",
      "rotation": [
        2.6730578928574117e-15,
        -3.0752788464598454e-16,
        0.8732624650001526,
        0.48725011944770813
      ]
    },
    {
      "children": [
        26
      ],
      "name": "Protoni_2",
      "rotation": [
        -1.734723475976807e-17,
        -2.7755575615628914e-17,
        6.938893903907228e-17,
        1.0
      ]
    },
    {
      "mesh": 1,
      "name": "Protoni_2_Nuovo.1_0"
    },
    {
      "children": [
        28
      ],
      "name": "Neutroni",
      "rotation": [
        2.6730578928574117e-15,
        -3.0752788464598454e-16,
        0.8732624650001526,
        0.48725011944770813
      ]
    },
    {
      "name": "Sfera",
      "rotation": [
        5.970531492494047e-05,
        2.1158173694857396e-05,
        -8.041140245040879e-05,
        1.0
      ],
      "translation": [
        1.2796509265899658,
        19.600732803344727,
        -1.4687755107879639
      ]
    }
  ],
  "scene": 0,
  "scenes": [
    {
      "name": "Sketchfab_Scene",
      "nodes": [
        0
      ]
    }
  ]
}
