{
  "accessors": [
    {
      "bufferView": 2,
      "componentType": 5126,
      "count": 162,
      "max": [
        1.2409002780914307,
        1.2399299144744873,
        0.10634786635637283
      ],
      "min": [
        -1.0550353527069092,
        -1.2642630338668823,
        -1.0373975038528442
      ],
      "type": "VEC3"
    },
    {
      "bufferView": 2,
      "byteOffset": 1944,
      "componentType": 5126,
      "count": 162,
      "max": [
        0.999629557132721,
        0.9999931454658508,
        0.9283285737037659
      ],
      "min": [
        -0.9996294379234314,
        -0.9999931454658508,
        -0.9007875323295593
      ],
      "type": "VEC3"
    },
    {
      "bufferView": 1,
      "componentType": 5126,
      "count": 162,
      "max": [
        0.8692656755447388,
        0.8220739364624023
      ],
      "min": [
        0.0,
        0.0
      ],
      "type": "VEC2"
    },
    {
      "bufferView": 0,
      "componentType": 5125,
      "count": 684,
      "type": "SCALAR"
    },
    {
      "bufferView": 2,
      "byteOffset": 3888,
      "componentType": 5126,
      "count": 84,
      "max": [
        1.001441478729248,
        0.9465386867523193,
        0.10591579228639603
      ],
      "min": [
        -0.7978032827377319,
        -0.9550411701202393,
        -0.7624521255493164
      ],
      "type": "VEC3"
    },
    {
      "bufferView": 2,
      "byteOffset": 4896,
      "componentType": 5126,
      "count": 84,
      "max": [
        0.9999926090240479,
        0.9994840621948242,
        0.9999690651893616
      ],
      "min": [
        -0.9995683431625366,
        -0.999630331993103,
        -0.6816303133964539
      ],
      "type": "VEC3"
    },
    {
      "bufferView": 1,
      "byteOffset": 1296,
      "componentType": 5126,
      "count": 84,
      "max": [
        0.8692656755447388,
        0.7447923421859741
      ],
      "min": [
        0.6285632848739624,
        0.5068119764328003
      ],
      "type": "VEC2"
    },
    {
      "bufferView": 0,
      "byteOffset": 2736,
      "componentType": 5125,
      "count": 246,
      "type": "SCALAR"
    },
    {
      "bufferView": 2,
      "byteOffset": 5904,
      "componentType": 5126,
      "count": 559,
      "max": [
        1.228500485420227,
        1.09284245967865,
        0.9251303672790527
      ],
      "min": [
        -0.9999990463256836,
        -0.9999993443489075,
        -1.0
      ],
      "type": "VEC3"
    },
    {
      "bufferView": 2,
      "byteOffset": 12612,
      "componentType": 5126,
      "count": 559,
      "max": [
        0.9997487664222717,
        0.9999935030937195,
        0.9999833106994629
      ],
      "min": [
        -0.9999637007713318,
        -0.9999944567680359,
        -0.9999975562095642
      ],
      "type": "VEC3"
    },
    {
      "bufferView": 1,
      "byteOffset": 1968,
      "componentType": 5126,
      "count": 559,
      "max": [
        1.0,
        1.0
      ],
      "min": [
        0.0,
        0.0
      ],
      "type": "VEC2"
    },
    {
      "bufferView": 0,
      "byteOffset": 3720,
      "componentType": 5125,
      "count": 2880,
      "type": "SCALAR"
    },
    {
      "bufferView": 2,
      "byteOffset": 19320,
      "componentType": 5126,
      "count": 625,
      "max": [
        3.0440173149108887,
        2.963069438934326,
        0.24334102869033813
      ],
      "min": [
        -1.7419719696044922,
        -1.4076664447784424,
        -1.362513542175293
      ],
      "type": "VEC3"
    },
    {
      "bufferView": 2,
      "byteOffset": 26820,
      "componentType": 5126,
      "count": 625,
      "max": [
        0.9938721060752869,
        0.9929935336112976,
        0.991723895072937
      ],
      "min": [
        -0.9889042377471924,
        -0.9914883375167847,
        -0.992466151714325
      ],
      "type": "VEC3"
    },
    {
      "bufferView": 1,
      "byteOffset": 6440,
      "componentType": 5126,
      "count": 625,
      "max": [
        0.875,
        1.0
      ],
      "min": [
        0.0,
        0.0
      ],
      "type": "VEC2"
    },
    {
      "bufferView": 0,
      "byteOffset": 15240,
      "componentType": 5125,
      "count": 2610,
      "type": "SCALAR"
    },
    {
      "bufferView": 2,
      "byteOffset": 34320,
      "componentType": 5126,
      "count": 579,
      "max": [
        3.0883538722991943,
        2.6040267944335938,
        0.24369902908802032
      ],
      "min": [
        -2.093061685562134,
        -1.2493340969085693,
        -1.362155556678772
      ],
      "type": "VEC3"
    },
    {
      "bufferView": 2,
      "byteOffset": 41268,
      "componentType": 5126,
      "count": 579,
      "max": [
        0.9941193461418152,
        0.9972371459007263,
        0.9917238354682922
      ],
      "min": [
        -0.9842332601547241,
        -0.9892276525497437,
        -0.9924663305282593
      ],
      "type": "VEC3"
    },
    {
      "bufferView": 1,
      "byteOffset": 11440,
      "componentType": 5126,
      "count": 579,
      "max": [
        0.875,
        1.0
      ],
      "min": [
        0.0,
        0.0
      ],
      "type": "VEC2"
    },
    {
      "bufferView": 0,
      "byteOffset": 25680,
      "componentType": 5125,
      "count": 2478,
      "type": "SCALAR"
    },
    {
      "bufferView": 2,
      "byteOffset": 48216,
      "componentType": 5126,
      "count": 46,
      "max": [
        0.4284559488296509,
        1.0415098667144775,
        0.37859636545181274
      ],
      "min": [
        -0.43423140048980713,
        -0.05199021100997925,
        -1.160765290260315
      ],
      "type": "VEC3"
    },
    {
      "bufferView": 2,
      "byteOffset": 48768,
      "componentType": 5126,
      "count": 46,
      "max": [
        0.8035297393798828,
        0.9929935932159424,
        0.9910772442817688
      ],
      "min": [
        -0.9197936654090881,
        -0.9914885759353638,
        -0.8705630898475647
      ],
      "type": "VEC3"
    },
    {
      "bufferView": 1,
      "byteOffset": 16072,
      "componentType": 5126,
      "count": 46,
      "max": [
        0.875,
        1.0
      ],
      "min": [
        0.0,
        0.0
      ],
      "type": "VEC2"
    },
    {
      "bufferView": 0,
      "byteOffset": 35592,
      "componentType": 5125,
      "count": 132,
      "type": "SCALAR"
    },
    {
      "bufferView": 2,
      "byteOffset": 49320,
      "componentType": 5126,
      "count": 6748,
      "max": [
        18.024250030517578,
        35.63905334472656,
        0.25
      ],
      "min": [
        -11.762927055358887,
        -1.8013334274291992,
        -5.335648536682129
      ],
      "type": "VEC3"
    },
    {
      "bufferView": 2,
      "byteOffset": 130296,
      "componentType": 5126,
      "count": 6748,
      "max": [
        0.9999998807907104,
        0.9970523715019226,
        0.9999987483024597
      ],
      "min": [
        -0.9999994039535522,
        -0.9975425004959106,
        -0.9688652157783508
      ],
      "type": "VEC3"
    },
    {
      "bufferView": 1,
      "byteOffset": 16440,
      "componentType": 5126,
      "count": 6748,
      "max": [
        1.0,
        1.0
      ],
      "min": [
        8.881784197001252e-16,
        0.5
      ],
      "type": "VEC2"
    },
    {
      "bufferView": 0,
      "byteOffset": 36120,
      "componentType": 5125,
      "count": 39480,
      "type": "SCALAR"
    },
    {
      "bufferView": 2,
      "byteOffset": 211272,
      "componentType": 5126,
      "count": 559,
      "max": [
        2.7199883460998535,
        1.1086015701293945,
        0.9251303672790527
      ],
      "min": [
        -2.16682767868042,
        -1.1529773473739624,
        -1.0
      ],
      "type": "VEC3"
    },
    {
      "bufferView": 2,
      "byteOffset": 217980,
      "componentType": 5126,
      "count": 559,
      "max": [
        0.9866069555282593,
        0.9991511702537537,
        0.999990701675415
      ],
      "min": [
        -0.9990617036819458,
        -0.9985686540603638,
        -0.999972403049469
      ],
      "type": "VEC3"
    },
    {
      "bufferView": 1,
      "byteOffset": 70424,
      "componentType": 5126,
      "count": 559,
      "max": [
        1.0,
        1.0
      ],
      "min": [
        0.0,
        0.0
      ],
      "type": "VEC2"
    },
    {
      "bufferView": 0,
      "byteOffset": 194040,
      "componentType": 5125,
      "count": 2880,
      "type": "SCALAR"
    },
    {
      "bufferView": 2,
      "byteOffset": 224688,
      "componentType": 5126,
      "count": 559,
      "max": [
        2.7199883460998535,
        1.1086015701293945,
        0.9251303672790527
      ],
      "min": [
        -2.16682767868042,
        -1.1529773473739624,
        -1.0
      ],
      "type": "VEC3"
    },
    {
      "bufferView": 2,
      "byteOffset": 231396,
      "componentType": 5126,
      "count": 559,
      "max": [
        0.9866069555282593,
        0.9991511702537537,
        0.999990701675415
      ],
      "min": [
        -0.9990617036819458,
        -0.9985686540603638,
        -0.999972403049469
      ],
      "type": "VEC3"
    },
    {
      "bufferView": 1,
      "byteOffset": 74896,
      "componentType": 5126,
      "count": 559,
      "max": [
        1.0,
        1.0
      ],
      "min": [
        0.0,
        0.0
      ],
      "type": "VEC2"
    },
    {
      "bufferView": 0,
      "byteOffset": 205560,
      "componentType": 5125,
      "count": 2880,
      "type": "SCALAR"
    },
    {
      "bufferView": 2,
      "byteOffset": 238104,
      "componentType": 5126,
      "count": 559,
      "max": [
        2.7199883460998535,
        1.1086015701293945,
        0.9251303672790527
      ],
      "min": [
        -2.16682767868042,
        -1.1529773473739624,
        -1.0
      ],
      "type": "VEC3"
    },
    {
      "bufferView": 2,
      "byteOffset": 244812,
      "componentType": 5126,
      "count": 559,
      "max": [
        0.9866069555282593,
        0.9991511702537537,
        0.999990701675415
      ],
      "min": [
        -0.9990617036819458,
        -0.9985686540603638,
        -0.999972403049469
      ],
      "type": "VEC3"
    },
    {
      "bufferView": 1,
      "byteOffset": 79368,
      "componentType": 5126,
      "count": 559,
      "max": [
        1.0,
        1.0
      ],
      "min": [
        0.0,
        0.0
      ],
      "type": "VEC2"
    },
    {
      "bufferView": 0,
      "byteOffset": 217080,
      "componentType": 5125,
      "count": 2880,
      "type": "SCALAR"
    },
    {
      "bufferView": 2,
      "byteOffset": 251520,
      "componentType": 5126,
      "count": 559,
      "max": [
        3.1206626892089844,
        1.6746087074279785,
        0.9251303672790527
      ],
      "min": [
        -0.9999990463256836,
        -0.955328106880188,
        -1.0
      ],
      "type": "VEC3"
    },
    {
      "bufferView": 2,
      "byteOffset": 258228,
      "componentType": 5126,
      "count": 559,
      "max": [
        0.9997487664222717,
        0.9999934434890747,
        0.999748706817627
      ],
      "min": [
        -0.9999637007713318,
        -0.9978078007698059,
        -0.9998105764389038
      ],
      "type": "VEC3"
    },
    {
      "bufferView": 1,
      "byteOffset": 83840,
      "componentType": 5126,
      "count": 559,
      "max": [
        1.0,
        1.0
      ],
      "min": [
        0.0,
        0.0
      ],
      "type": "VEC2"
    },
    {
      "bufferView": 0,
      "byteOffset": 228600,
      "componentType": 5125,
      "count": 2880,
      "type": "SCALAR"
    },
    {
      "bufferView": 2,
      "byteOffset": 264936,
      "componentType": 5126,
      "count": 559,
      "max": [
        2.7199883460998535,
        1.1086015701293945,
        0.9251303672790527
      ],
      "min": [
        -2.16682767868042,
        -1.1529773473739624,
        -1.0
      ],
      "type": "VEC3"
    },
    {
      "bufferView": 2,
      "byteOffset": 271644,
      "componentType": 5126,
      "count": 559,
      "max": [
        0.9866069555282593,
        0.9991511702537537,
        0.999990701675415
      ],
      "min": [
        -0.9990617036819458,
        -0.9985686540603638,
        -0.999972403049469
      ],
      "type": "VEC3"
    },
    {
      "bufferView": 1,
      "byteOffset": 88312,
      "componentType": 5126,
      "count": 559,
      "max": [
        1.0,
        1.0
      ],
      "min": [
        0.0,
        0.0
      ],
      "type": "VEC2"
    },
    {
      "bufferView": 0,
      "byteOffset": 240120,
      "componentType": 5125,
      "count": 2880,
      "type": "SCALAR"
    },
    {
      "bufferView": 2,
      "byteOffset": 278352,
      "componentType": 5126,
      "count": 559,
      "max": [
        2.7199883460998535,
        1.1086015701293945,
        0.9251303672790527
      ],
      "min": [
        -2.16682767868042,
        -1.1529773473739624,
        -1.0
      ],
      "type": "VEC3"
    },
    {
      "bufferView": 2,
      "byteOffset": 285060,
      "componentType": 5126,
      "count": 559,
      "max": [
        0.9866069555282593,
        0.9991511702537537,
        0.999990701675415
      ],
      "min": [
        -0.9990617036819458,
        -0.9985686540603638,
        -0.999972403049469
      ],
      "type": "VEC3"
    },
    {
      "bufferView": 1,
      "byteOffset": 92784,
      "componentType": 5126,
      "count": 559,
      "max": [
        1.0,
        1.0
      ],
      "min": [
        0.0,
        0.0
      ],
      "type": "VEC2"
    },
    {
      "bufferView": 0,
      "byteOffset": 251640,
      "componentType": 5125,
      "count": 2880,
      "type": "SCALAR"
    },
    {
      "bufferView": 2,
      "byteOffset": 291768,
      "componentType": 5126,
      "count": 198,
      "max": [
        9.723657608032227,
        10.440166473388672,
        1.0
      ],
      "min": [
        -4.814769268035889,
        -2.1714086532592773,
        -1.0
      ],
      "type": "VEC3"
    },
    {
      "bufferView": 2,
      "byteOffset": 294144,
      "componentType": 5126,
      "count": 198,
      "max": [
        0.9511969089508057,
        0.7298482060432434,
        0.8573554754257202
      ],
      "min": [
        -0.9554987549781799,
        -0.8036485314369202,
        -0.7773417234420776
      ],
      "type": "VEC3"
    },
    {
      "bufferView": 1,
      "byteOffset": 97256,
      "componentType": 5126,
      "count": 198,
      "max": [
        0.8961501121520996,
        1.0
      ],
      "min": [
        0.125,
        0.03619976341724396
      ],
      "type": "VEC2"
    },
    {
      "bufferView": 0,
      "byteOffset": 263160,
      "componentType": 5125,
      "count": 660,
      "type": "SCALAR"
    },
    {
      "bufferView": 2,
      "byteOffset": 296520,
      "componentType": 5126,
      "count": 198,
      "max": [
        9.723652839660645,
        10.472563743591309,
        -0.9375684261322021
      ],
      "min": [
        -4.814772605895996,
        -2.139010429382324,
        -2.9375698566436768
      ],
      "type": "VEC3"
    },
    {
      "bufferView": 2,
      "byteOffset": 298896,
      "componentType": 5126,
      "count": 198,
      "max": [
        0.9511969685554504,
        0.8036485314369202,
        0.7773417234420776
      ],
      "min": [
        -0.9554989337921143,
        -0.7298482656478882,
        -0.8573555946350098
      ],
      "type": "VEC3"
    },
    {
      "bufferView": 1,
      "byteOffset": 98840,
      "componentType": 5126,
      "count": 198,
      "max": [
        0.8961501121520996,
        1.0
      ],
      "min": [
        0.125,
        0.03619976341724396
      ],
      "type": "VEC2"
    },
    {
      "bufferView": 0,
      "byteOffset": 265800,
      "componentType": 5125,
      "count": 660,
      "type": "SCALAR"
    },
    {
      "bufferView": 2,
      "byteOffset": 301272,
      "componentType": 5126,
      "count": 559,
      "max": [
        19.575305938720703,
        16.75874137878418,
        0.9601836800575256
      ],
      "min": [
        17.346805572509766,
        14.665899276733398,
        -0.9649466872215271
      ],
      "type": "VEC3"
    },
    {
      "bufferView": 2,
      "byteOffset": 307980,
      "componentType": 5126,
      "count": 559,
      "max": [
        0.9997487664222717,
        0.9999934434890747,
        0.9999833703041077
      ],
      "min": [
        -0.9999637007713318,
        -0.9999945163726807,
        -0.999997615814209
      ],
      "type": "VEC3"
    },
    {
      "bufferView": 1,
      "byteOffset": 100424,
      "componentType": 5126,
      "count": 559,
      "max": [
        1.0,
        1.0
      ],
      "min": [
        0.0,
        0.0
      ],
      "type": "VEC2"
    },
    {
      "bufferView": 0,
      "byteOffset": 268440,
      "componentType": 5125,
      "count": 2880,
      "type": "SCALAR"
    },
    {
      "bufferView": 2,
      "byteOffset": 314688,
      "componentType": 5126,
      "count": 559,
      "max": [
        12.731508255004883,
        15.98090934753418,
        0.9601837396621704
      ],
      "min": [
        10.503008842468262,
        13.888068199157715,
        -0.9649466276168823
      ],
      "type": "VEC3"
    },
    {
      "bufferView": 2,
      "byteOffset": 321396,
      "componentType": 5126,
      "count": 559,
      "max": [
        0.999748706817627,
        0.9999934434890747,
        0.9999833106994629
      ],
      "min": [
        -0.9999637007713318,
        -0.9999944567680359,
        -0.9999975562095642
      ],
      "type": "VEC3"
    },
    {
      "bufferView": 1,
      "byteOffset": 104896,
      "componentType": 5126,
      "count": 559,
      "max": [
        1.0,
        1.0
      ],
      "min": [
        0.0,
        0.0
      ],
      "type": "VEC2"
    },
    {
      "bufferView": 0,
      "byteOffset": 279960,
      "componentType": 5125,
      "count": 2880,
      "type": "SCALAR"
    },
    {
      "bufferView": 2,
      "byteOffset": 328104,
      "componentType": 5126,
      "count": 559,
      "max": [
        -18.018550872802734,
        -5.801732063293457,
        0.9601837396621704
      ],
      "min": [
        -20.247051239013672,
        -7.894574165344238,
        -0.9649466276168823
      ],
      "type": "VEC3"
    },
    {
      "bufferView": 2,
      "byteOffset": 334812,
      "componentType": 5126,
      "count": 559,
      "max": [
        0.9997487664222717,
        0.9999934434890747,
        0.9999833703041077
      ],
      "min": [
        -0.9999637007713318,
        -0.9999944567680359,
        -0.9999975562095642
      ],
      "type": "VEC3"
    },
    {
      "bufferView": 1,
      "byteOffset": 109368,
      "componentType": 5126,
      "count": 559,
      "max": [
        1.0,
        1.0
      ],
      "min": [
        0.0,
        0.0
      ],
      "type": "VEC2"
    },
    {
      "bufferView": 0,
      "byteOffset": 291480,
      "componentType": 5125,
      "count": 2880,
      "type": "SCALAR"
    },
    {
      "bufferView": 2,
      "byteOffset": 341520,
      "componentType": 5126,
      "count": 559,
      "max": [
        -9.862483978271484,
        -22.758804321289063,
        0.9601837396621704
      ],
      "min": [
        -12.090984344482422,
        -24.851646423339844,
        -0.9649466276168823
      ],
      "type": "VEC3"
    },
    {
      "bufferView": 2,
      "byteOffset": 348228,
      "componentType": 5126,
      "count": 559,
      "max": [
        0.999748706817627,
        0.9999934434890747,
        0.9999833106994629
      ],
      "min": [
        -0.9999637007713318,
        -0.9999944567680359,
        -0.999997615814209
      ],
      "type": "VEC3"
    },
    {
      "bufferView": 1,
      "byteOffset": 113840,
      "componentType": 5126,
      "count": 559,
      "max": [
        1.0,
        1.0
      ],
      "min": [
        0.0,
        0.0
      ],
      "type": "VEC2"
    },
    {
      "bufferView": 0,
      "byteOffset": 303000,
      "componentType": 5125,
      "count": 2880,
      "type": "SCALAR"
    },
    {
      "bufferView": 2,
      "byteOffset": 354936,
      "componentType": 5126,
      "count": 12,
      "max": [
        1.0012820959091187,
        0.9456052780151367,
        0.013559222221374512
      ],
      "min": [
        -0.7966088056564331,
        -0.9549165964126587,
        -0.03042745590209961
      ],
      "type": "VEC3"
    },
    {
      "bufferView": 2,
      "byteOffset": 355080,
      "componentType": 5126,
      "count": 12,
      "max": [
        0.009488330222666264,
        -0.007414893712848425,
        0.9999275803565979
      ],
      "min": [
        0.009488329291343689,
        -0.0074148946441709995,
        0.9999275207519531
      ],
      "type": "VEC3"
    },
    {
      "bufferView": 1,
      "byteOffset": 118312,
      "componentType": 5126,
      "count": 12,
      "max": [
        0.8692656755447388,
        0.7447923421859741
      ],
      "min": [
        0.6285632848739624,
        0.5068119764328003
      ],
      "type": "VEC2"
    },
    {
      "bufferView": 0,
      "byteOffset": 314520,
      "componentType": 5125,
      "count": 30,
      "type": "SCALAR"
    },
    {
      "bufferView": 2,
      "byteOffset": 355224,
      "componentType": 5126,
      "count": 134,
      "max": [
        1.2416685819625854,
        1.2399299144744873,
        1.0474233627319336
      ],
      "min": [
        -1.0550353527069092,
        -1.270835041999817,
        0.05774015933275223
      ],
      "type": "VEC3"
    },
    {
      "bufferView": 2,
      "byteOffset": 356832,
      "componentType": 5126,
      "count": 134,
      "max": [
        0.8464781045913696,
        0.7610946893692017,
        0.9999897480010986
      ],
      "min": [
        -0.8175814151763916,
        -0.824224054813385,
        -0.8576227426528931
      ],
      "type": "VEC3"
    },
    {
      "bufferView": 1,
      "byteOffset": 118408,
      "componentType": 5126,
      "count": 134,
      "max": [
        0.875,
        0.8220739364624023
      ],
      "min": [
        0.0,
        0.0
      ],
      "type": "VEC2"
    },
    {
      "bufferView": 0,
      "byteOffset": 314640,
      "componentType": 5125,
      "count": 564,
      "type": "SCALAR"
    }
  ],
  "asset": {
    "extras": {
      "author": "Novsred - Biology (https://sketchfab.com/Novsred)",
      "license": "CC-BY-4.0 (http://creativecommons.org/licenses/by/4.0/)",
      "source": "https://sketchfab.com/3d-models/free-3d-plant-cell-model-9835283b3cf54753ba1c5be0b903253f",
      "title": "[Free] 3D Plant Cell Model"
    },
    "generator": "Sketchfab-16.31.0",
    "version": "2.0"
  },
  "bufferViews": [
    {
      "buffer": 0,
      "byteLength": 316896,
      "name": "floatBufferViews",
      "target": 34963
    },
    {
      "buffer": 0,
      "byteLength": 119480,
      "byteOffset": 316896,
      "byteStride": 8,
      "name": "floatBufferViews",
      "target": 34962
    },
    {
      "buffer": 0,
      "byteLength": 358440,
      "byteOffset": 436376,
      "byteStride": 12,
      "name": "floatBufferViews",
      "target": 34962
    }
  ],
  "buffers": [
    {
      "byteLength": 794816,
      "uri": "scene.bin"
    }
  ],
  "materials": [
    {
      "doubleSided": true,
      "name": "Material",
      "pbrMetallicRoughness": {
        "baseColorFactor": [
          0.104642,
          0.800545,
          0.000340537,
          1.0
        ],
        "metallicFactor": 0.0,
        "roughnessFactor": 0.8669939228241875
      }
    },
    {
      "doubleSided": true,
      "name": "Material.001",
      "pbrMetallicRoughness": {
        "baseColorFactor": [
          0.485633,
          0.800497,
          0.137723,
          1.0
        ],
        "metallicFactor": 0.0,
        "roughnessFactor": 0.8466717833044803
      }
    },
    {
      "doubleSided": true,
      "name": "Material.002",
      "pbrMetallicRoughness": {
        "baseColorFactor": [
          0.488411,
          0.10103,
          0.800424,
          1.0
        ],
        "metallicFactor": 0.0,
        "roughnessFactor": 0.9477020712801604
      }
    },
    {
      "doubleSided": true,
      "name": "Material.003",
      "pbrMetallicRoughness": {
        "baseColorFactor": [
          0.174826,
          0.0175917,
          0.80204,
          1.0
        ],
        "metallicFactor": 0.0,
        "roughnessFactor": 0.975927189932666
      }
    },
    {
      "doubleSided": true,
      "name": "Material.004",
      "pbrMetallicRoughness": {
        "baseColorFactor": [
          0.0392643,
          0.472561,
          0.800371,
          1.0
        ],
        "metallicFactor": 0.0,
        "roughnessFactor": 0.9096382561607437
      }
    },
    {
      "doubleSided": true,
      "name": "Material.006",
      "pbrMetallicRoughness": {
        "baseColorFactor": [
          0.00650323,
          0.801236,
          0.00895209,
          1.0
        ],
        "metallicFactor": 0.0,
        "roughnessFactor": 0.8714097870497199
      }
    },
    {
      "doubleSided": true,
      "name": "Material.007",
      "pbrMetallicRoughness": {
        "baseColorFactor": [
          0.00650323,
          0.801236,
          0.00895209,
          1.0
        ],
        "metallicFactor": 0.0,
        "roughnessFactor": 0.8714097870497199
      }
    },
    {
      "doubleSided": true,
      "name": "Material.008",
      "pbrMetallicRoughness": {
        "baseColorFactor": [
          0.00650323,
          0.801236,
          0.00895209,
          1.0
        ],
        "metallicFactor": 0.0,
        "roughnessFactor": 0.8714097870497199
      }
    },
    {
      "doubleSided": true,
      "name": "Material.011",
      "pbrMetallicRoughness": {
        "baseColorFactor": [
          0.80192,
          0.634166,
          0.23383,
          1.0
        ],
        "metallicFactor": 0.0,
        "roughnessFactor": 0.8566845356113374
      }
    },
    {
      "doubleSided": true,
      "name": "Material.015",
      "pbrMetallicRoughness": {
        "baseColorFactor": [
          0.800172,
          0.219409,
          0.0981293,
          1.0
        ],
        "metallicFactor": 0.0,
        "roughnessFactor": 0.925287866285355
      }
    },
    {
      "doubleSided": true,
      "name": "Material.016",
      "pbrMetallicRoughness": {
        "baseColorFactor": [
          0.800259,
          0.718778,
          0.026645,
          1.0
        ],
        "metallicFactor": 0.0,
        "roughnessFactor": 0.84657692321877
      }
    },
    {
      "doubleSided": true,
      "name": "Material.012",
      "pbrMetallicRoughness": {
        "baseColorFactor": [
          0.800259,
          0.718778,
          0.026645,
          1.0
        ],
        "metallicFactor": 0.0,
        "roughnessFactor": 0.84657692321877
      }
    },
    {
      "doubleSided": true,
      "name": "Material.019",
      "pbrMetallicRoughness": {
        "baseColorFactor": [
          0.801064,
          0.0,
          0.0114455,
          1.0
        ],
        "metallicFactor": 0.0,
        "roughnessFactor": 0.9617335936961657
      }
    },
    {
      "doubleSided": true,
      "name": "Material.018",
      "pbrMetallicRoughness": {
        "baseColorFactor": [
          0.801064,
          0.0,
          0.0114455,
          1.0
        ],
        "metallicFactor": 0.0,
        "roughnessFactor": 0.9617335936961657
      }
    },
    {
      "doubleSided": true,
      "name": "Material.020",
      "pbrMetallicRoughness": {
        "baseColorFactor": [
          0.801064,
          0.0,
          0.0114455,
          1.0
        ],
        "metallicFactor": 0.0,
        "roughnessFactor": 0.9617335936961657
      }
    },
    {
      "doubleSided": true,
      "name": "Material.021",
      "pbrMetallicRoughness": {
        "baseColorFactor": [
          0.801064,
          0.0,
          0.0114455,
          1.0
        ],
        "metallicFactor": 0.0,
        "roughnessFactor": 0.9617335936961657
      }
    },
    {
      "doubleSided": true,
      "name": "Material.023",
      "pbrMetallicRoughness": {
        "baseColorFactor": [
          0.384474,
          0.0207289,
          0.0,
          1.0
        ],
        "metallicFactor": 0.0,
        "roughnessFactor": 0.9784075254751486
      }
    }
  ],
  "meshes": [
    {
      "name": "Dinding Sel_Material_0",
      "primitives": [
        {
          "attributes": {
            "NORMAL": 1,
            "POSITION": 0,
            "TEXCOORD_0": 2
          },
          "indices": 3,
          "material": 0,
          "mode": 4
        }
      ]
    },
    {
      "name": "Membran Sel_Material.001_0",
      "primitives": [
        {
          "attributes": {
            "NORMAL": 5,
            "POSITION": 4,
            "TEXCOORD_0": 6
          },
          "indices": 7,
          "material": 1,
          "mode": 4
        }
      ]
    },
    {
      "name": "Nukleolus_Material.002_0",
      "primitives": [
        {
          "attributes": {
            "NORMAL": 9,
            "POSITION": 8,
            "TEXCOORD_0": 10
          },
          "indices": 11,
          "material": 2,
          "mode": 4
        }
      ]
    },
    {
      "name": "Cube_Material.003_0",
      "primitives": [
        {
          "attributes": {
            "NORMAL": 13,
            "POSITION": 12,
            "TEXCOORD_0": 14
          },
          "indices": 15,
          "material": 3,
          "mode": 4
        }
      ]
    },
    {
      "name": "Cube.005_Material.003_0",
      "primitives": [
        {
          "attributes": {
            "NORMAL": 17,
            "POSITION": 16,
            "TEXCOORD_0": 18
          },
          "indices": 19,
          "material": 3,
          "mode": 4
        }
      ]
    },
    {
      "name": "Cube.008_Material.003_0",
      "primitives": [
        {
          "attributes": {
            "NORMAL": 21,
            "POSITION": 20,
            "TEXCOORD_0": 22
          },
          "indices": 23,
          "material": 3,
          "mode": 4
        }
      ]
    },
    {
      "name": "Torus.005_Material.004_0",
      "primitives": [
        {
          "attributes": {
            "NORMAL": 25,
            "POSITION": 24,
            "TEXCOORD_0": 26
          },
          "indices": 27,
          "material": 4,
          "mode": 4
        }
      ]
    },
    {
      "name": "Nukleolus.001_Material.006_0",
      "primitives": [
        {
          "attributes": {
            "NORMAL": 29,
            "POSITION": 28,
            "TEXCOORD_0": 30
          },
          "indices": 31,
          "material": 5,
          "mode": 4
        }
      ]
    },
    {
      "name": "Nukleolus.002_Material.007_0",
      "primitives": [
        {
          "attributes": {
            "NORMAL": 33,
            "POSITION": 32,
            "TEXCOORD_0": 34
          },
          "indices": 35,
          "material": 6,
          "mode": 4
        }
      ]
    },
    {
      "name": "Nukleolus.003_Material.008_0",
      "primitives": [
        {
          "attributes": {
            "NORMAL": 37,
            "POSITION": 36,
            "TEXCOORD_0": 38
          },
          "indices": 39,
          "material": 7,
          "mode": 4
        }
      ]
    },
    {
      "name": "Nukleolus.005_Material.011_0",
      "primitives": [
        {
          "attributes": {
            "NORMAL": 41,
            "POSITION": 40,
            "TEXCOORD_0": 42
          },
          "indices": 43,
          "material": 8,
          "mode": 4
        }
      ]
    },
    {
      "name": "Nukleolus.006_Material.015_0",
      "primitives": [
        {
          "attributes": {
            "NORMAL": 45,
            "POSITION": 44,
            "TEXCOORD_0": 46
          },
          "indices": 47,
          "material": 9,
          "mode": 4
        }
      ]
    },
    {
      "name": "Nukleolus.007_Material.015_0",
      "primitives": [
        {
          "attributes": {
            "NORMAL": 49,
            "POSITION": 48,
            "TEXCOORD_0": 50
          },
          "indices": 51,
          "material": 9,
          "mode": 4
        }
      ]
    },
    {
      "name": "Cube.001_Material.016_0",
      "primitives": [
        {
          "attributes": {
            "NORMAL": 53,
            "POSITION": 52,
            "TEXCOORD_0": 54
          },
          "indices": 55,
          "material": 10,
          "mode": 4
        }
      ]
    },
    {
      "name": "Cube.001_Material.012_0",
      "primitives": [
        {
          "attributes": {
            "NORMAL": 57,
            "POSITION": 56,
            "TEXCOORD_0": 58
          },
          "indices": 59,
          "material": 11,
          "mode": 4
        }
      ]
    },
    {
      "name": "Nukleolus.008_Material.019_0",
      "primitives": [
        {
          "attributes": {
            "NORMAL": 61,
            "POSITION": 60,
            "TEXCOORD_0": 62
          },
          "indices": 63,
          "material": 12,
          "mode": 4
        }
      ]
    },
    {
      "name": "Nukleolus.008_Material.018_0",
      "primitives": [
        {
          "attributes": {
            "NORMAL": 65,
            "POSITION": 64,
            "TEXCOORD_0": 66
          },
          "indices": 67,
          "material": 13,
          "mode": 4
        }
      ]
    },
    {
      "name": "Nukleolus.008_Material.020_0",
      "primitives": [
        {
          "attributes": {
            "NORMAL": 69,
            "POSITION": 68,
            "TEXCOORD_0": 70
          },
          "indices": 71,
          "material": 14,
          "mode": 4
        }
      ]
    },
    {
      "name": "Nukleolus.008_Material.021_0",
      "primitives": [
        {
          "attributes": {
            "NORMAL": 73,
            "POSITION": 72,
            "TEXCOORD_0": 74
          },
          "indices": 75,
          "material": 15,
          "mode": 4
        }
      ]
    },
    {
      "name": "Membran Sel.001_Material.023_0",
      "primitives": [
        {
          "attributes": {
            "NORMAL": 77,
            "POSITION": 76,
            "TEXCOORD_0": 78
          },
          "indices": 79,
          "material": 16,
          "mode": 4
        }
      ]
    },
    {
      "name": "Dinding Sel.001_Material_0",
      "primitives": [
        {
          "attributes": {
            "NORMAL": 81,
            "POSITION": 80,
            "TEXCOORD_0": 82
          },
          "indices": 83,
          "material": 0,
          "mode": 4
        }
      ]
    }
  ],
  "nodes": [
    {
      "children": [
        1
      ],
      "matrix": [
        1.0,
        0.0,
        0.0,
        0.0,
        0.0,
        2.220446049250313e-16,
        -1.0,
        0.0,
        0.0,
        1.0,
        2.220446049250313e-16,
        0.0,
        0.0,
        0.0,
        0.0,
        1.0
      ],
      "name": "Sketchfab_model"
    },
    {
      "children": [
        2
      ],
      "matrix": [
        0.009999999776482582,
        0.0,
        0.0,
        0.0,
        0.0,
        0.0,
        0.009999999776482582,
        0.0,
        0.0,
        -0.009999999776482582,
        0.0,
        0.0,
        0.0,
        0.0,
        0.0,
        1.0
      ],
      "name": "8a6c369987e749138248ce831497947f.fbx"
    },
    {
      "children": [
        3,
        5,
        7,
        9,
        11,
        13,
        15,
        17,
        19,
        21,
        23,
        25,
        27,
        29,
        31,
        34,
        39,
        41
      ],
      "name": "RootNode"
    },
    {
      "children": [
        4
      ],
      "matrix": [
        257.6747131347656,
        0.0,
        0.0,
        0.0,
        0.0,
        -4.198053932601128e-05,
        -257.6747131347622,
        0.0,
        0.0,
        109.8800430297837,
        -1.790173126201627e-05,
        0.0,
        17.007465362548828,
        -1.455902338027954,
        15.429671287536621,
        1.0
      ],
      "name": "Dinding Sel"
    },
    {
      "mesh": 0,
      "name": "Dinding Sel_Material_0"
    },
    {
      "children": [
        6
      ],
      "matrix": [
        -65.1558127516791,
        -44.52713915455176,
        -61.417049289096546,
        0.0,
        -32.401349332924404,
        89.53957282709818,
        -30.5420854760369,
        0.0,
        68.59207001076241,
        8.666908837178815e-06,
        -72.76761921184274,
        0.0,
        735.88916015625,
        495.8309326171875,
        692.5791015625,
        1.0
      ],
      "name": "Camera"
    },
    {
      "name": "Object_6"
    },
    {
      "children": [
        8
      ],
      "matrix": [
        257.6747131347656,
        0.0,
        0.0,
        0.0,
        0.0,
        -4.198053932601128e-05,
        -257.6747131347622,
        0.0,
        0.0,
        109.8800430297837,
        -1.790173126201627e-05,
        0.0,
        17.007465362548828,
        -1.455902338027954,
        15.429671287536621,
        1.0
      ],
      "name": "Membran Sel"
    },
    {
      "mesh": 1,
      "name": "Membran Sel_Material.001_0"
    },
    {
      "children": [
        10
      ],
      "matrix": [
        63.911312960706105,
        -1.87289339615706e-15,
        -21.64803724461268,
        0.0,
        -21.648037244612656,
        -2.9495613753337935e-06,
        -63.91131296070605,
        0.0,
        -9.462657968209786e-07,
        67.47809600830072,
        -2.7936523196212576e-06,
        0.0,
        -66.37419891357422,
        5.681878089904785,
        -60.216617584228516,
        1.0
      ],
      "name": "Nukleolus"
    },
    {
      "mesh": 2,
      "name": "Nukleolus_Material.002_0"
    },
    {
      "children": [
        12
      ],
      "matrix": [
        27.46287630920579,
        9.497983009842107e-07,
        -21.319076675887416,
        0.0,
        -21.319076675887235,
        6.031979935586766e-06,
        -27.462876309205285,
        0.0,
        2.9485832268341533e-06,
        34.76654434204048,
        5.347219435049868e-06,
        0.0,
        -51.25938034057617,
        21.598634719848633,
        6.886817455291748,
        1.0
      ],
      "name": "Cube"
    },
    {
      "mesh": 3,
      "name": "Cube_Material.003_0"
    },
    {
      "children": [
        14
      ],
      "matrix": [
        -34.47064499141594,
        4.824826722502583e-15,
        -4.526253872156075,
        0.0,
        -4.526253872156062,
        2.6248007745482543e-06,
        34.47064499141583,
        0.0,
        3.4172270206380326e-07,
        34.76654434204092,
        -2.602461579712667e-06,
        0.0,
        -29.026254653930664,
        21.58618927001953,
        -126.2088623046875,
        1.0
      ],
      "name": "Cube.005"
    },
    {
      "mesh": 4,
      "name": "Cube.005_Material.003_0"
    },
    {
      "children": [
        16
      ],
      "matrix": [
        -34.5955237940512,
        3.85986180151854e-15,
        3.4441746329622185,
        0.0,
        3.4441746329622154,
        -1.5196939808808353e-06,
        34.59552379405118,
        0.0,
        1.505496649264558e-07,
        34.76654434204098,
        1.512218435995224e-06,
        0.0,
        -65.47027587890625,
        14.58454418182373,
        -143.30908203125,
        1.0
      ],
      "name": "Cube.008"
    },
    {
      "mesh": 5,
      "name": "Cube.008_Material.003_0"
    },
    {
      "children": [
        18
      ],
      "matrix": [
        6.681759876052035,
        -9.813918548986463e-08,
        -2.296675539621832,
        0.0,
        -2.15025732605721,
        -1.0461405689386563e-06,
        -6.255782707034725,
        0.0,
        -4.2033817176844534e-07,
        10.98323440551744,
        -1.692221795364563e-06,
        0.0,
        -15.182571411132813,
        34.69029235839844,
        55.919097900390625,
        1.0
      ],
      "name": "Torus.005"
    },
    {
      "mesh": 6,
      "name": "Torus.005_Material.004_0"
    },
    {
      "children": [
        20
      ],
      "matrix": [
        -7.876585718047943,
        1.1670273834086349e-15,
        -19.49200828819095,
        0.0,
        -19.49200828819093,
        -9.189575074379484e-07,
        7.87658571804794,
        0.0,
        -8.520227790685309e-07,
        21.023296356201154,
        3.4429651201540613e-07,
        0.0,
        -148.49964904785156,
        0.7065184116363525,
        52.73249053955078,
        1.0
      ],
      "name": "Nukleolus.001"
    },
    {
      "mesh": 7,
      "name": "Nukleolus.001_Material.006_0"
    },
    {
      "children": [
        22
      ],
      "matrix": [
        -17.258726294319004,
        -3.5010818325885494e-15,
        -12.00480221332013,
        0.0,
        -12.004802213320097,
        1.5872145758676153e-06,
        17.258726294318954,
        0.0,
        9.063374331965189e-07,
        21.023296356201115,
        -1.3029977065046987e-06,
        0.0,
        -78.22132110595703,
        0.7065184116363525,
        146.71412658691406,
        1.0
      ],
      "name": "Nukleolus.002"
    },
    {
      "mesh": 8,
      "name": "Nukleolus.002_Material.007_0"
    },
    {
      "children": [
        24
      ],
      "matrix": [
        -5.561419115443791,
        -1.074636381254143e-06,
        20.274358364767963,
        0.0,
        20.274358364763923,
        1.3023357921467825e-05,
        5.561419115443372,
        0.0,
        -1.2843691317945823e-05,
        21.02329635619711,
        -2.4087939266267264e-06,
        0.0,
        220.70379638671875,
        0.7065184116363525,
        94.42961883544922,
        1.0
      ],
      "name": "Nukleolus.003"
    },
    {
      "mesh": 9,
      "name": "Nukleolus.003_Material.008_0"
    },
    {
      "children": [
        26
      ],
      "matrix": [
        55.52589129376251,
        3.9403720477535674e-06,
        -30.94174721774508,
        0.0,
        -36.11731547083383,
        -5.806324721836749e-06,
        -64.81360339942104,
        0.0,
        -5.209623871597476e-06,
        56.4777183532712,
        -2.1564970271108393e-06,
        0.0,
        48.56882858276367,
        5.681878089904785,
        122.71894073486328,
        1.0
      ],
      "name": "Nukleolus.005"
    },
    {
      "mesh": 10,
      "name": "Nukleolus.005_Material.011_0"
    },
    {
      "children": [
        28
      ],
      "matrix": [
        11.462173499425173,
        -9.44279635258264e-16,
        12.56901348126656,
        0.0,
        12.569013481266392,
        -2.771383340101218e-06,
        -11.462173499425022,
        0.0,
        2.0477522165536186e-06,
        17.010629653930437,
        -1.8674250949328707e-06,
        0.0,
        217.42294311523438,
        0.7065184116363525,
        -86.25564575195313,
        1.0
      ],
      "name": "Nukleolus.006"
    },
    {
      "mesh": 11,
      "name": "Nukleolus.006_Material.015_0"
    },
    {
      "children": [
        30
      ],
      "matrix": [
        16.65386020675673,
        0.0,
        3.4656206265827936,
        0.0,
        3.46562062658279,
        -7.435583513946701e-07,
        -16.65386020675671,
        0.0,
        1.51487077947614e-07,
        17.01062965393065,
        -7.279632972124742e-07,
        0.0,
        63.382667541503906,
        0.7065184116363525,
        -188.56727600097656,
        1.0
      ],
      "name": "Nukleolus.007"
    },
    {
      "mesh": 12,
      "name": "Nukleolus.007_Material.015_0"
    },
    {
      "children": [
        32,
        33
      ],
      "matrix": [
        1.8836699724197388,
        0.0,
        0.0,
        0.0,
        0.0,
        2.175165121370091e-06,
        6.9291205406185545,
        0.0,
        0.0,
        -8.98466110229448,
        2.8204331765452175e-06,
        0.0,
        68.82494354248047,
        -3.9925284385681152,
        -128.07476806640625,
        1.0
      ],
      "name": "Cube.001"
    },
    {
      "mesh": 13,
      "name": "Cube.001_Material.016_0"
    },
    {
      "mesh": 14,
      "name": "Cube.001_Material.012_0"
    },
    {
      "children": [
        35,
        36,
        37,
        38
      ],
      "matrix": [
        6.563519556205171,
        1.9234110499362372e-16,
        -2.2231952867518774,
        0.0,
        -2.223195286751875,
        -3.029120021345245e-07,
        -6.563519556205165,
        0.0,
        -9.717896262847067e-08,
        6.929819107055657,
        -2.8690058043589093e-07,
        0.0,
        68.26042938232422,
        -1.1567234992980957,
        36.89309310913086,
        1.0
      ],
      "name": "Nukleolus.008"
    },
    {
      "mesh": 15,
      "name": "Nukleolus.008_Material.019_0"
    },
    {
      "mesh": 16,
      "name": "Nukleolus.008_Material.018_0"
    },
    {
      "mesh": 17,
      "name": "Nukleolus.008_Material.020_0"
    },
    {
      "mesh": 18,
      "name": "Nukleolus.008_Material.021_0"
    },
    {
      "children": [
        40
      ],
      "matrix": [
        257.6747131347656,
        0.0,
        0.0,
        0.0,
        0.0,
        -4.198053932601128e-05,
        -257.6747131347622,
        0.0,
        0.0,
        109.8800430297837,
        -1.790173126201627e-05,
        0.0,
        17.007465362548828,
        -1.455902338027954,
        15.429671287536621,
        1.0
      ],
      "name": "Membran Sel.001"
    },
    {
      "mesh": 19,
      "name": "Membran Sel.001_Material.023_0"
    },
    {
      "children": [
        42
      ],
      "matrix": [
        257.6747131347656,
        0.0,
        0.0,
        0.0,
        0.0,
        -4.198053932601128e-05,
        -257.6747131347622,
        0.0,
        0.0,
        109.8800430297837,
        -1.790173126201627e-05,
        0.0,
        17.007465362548828,
        309.9577941894531,
        15.429671287536621,
        1.0
      ],
      "name": "Dinding Sel.001"
    },
    {
      "mesh": 20,
      "name": "Dinding Sel.001_Material_0"
    }
  ],
  "scene": 0,
  "scenes": [
    {
      "name": "Sketchfab_Scene",
      "nodes": [
        0
      ]
    }
  ]
}
